<svg width="111" height="100" viewBox="0 0 111 100" fill="none" xmlns="http://www.w3.org/2000/svg">
<path d="M17.55 53.2L17.42 53.33C14.69 55.9733 12.5667 59.1367 11.05 62.82C9.53333 66.46 8.775 70.2083 8.775 74.065H2.015V74H1.95L2.015 41.11C2.015 37.2967 4.33333 34.2633 8.97 32.01C12.6967 30.19 16.705 29.28 20.995 29.28C26.845 29.28 32.1533 30.905 36.92 34.155V42.02C35.0133 39.6367 32.63 37.7733 29.77 36.43C26.9533 35.0433 24.0283 34.35 20.995 34.35C18.395 34.35 15.8817 34.8483 13.455 35.845C10.335 37.145 8.775 38.9 8.775 41.11V53.98C10.9417 51.0333 13.4767 48.6067 16.38 46.7C18.9367 45.01 21.255 44.1433 23.335 44.1C23.8983 43.97 24.4833 43.905 25.09 43.905C27.17 43.905 28.9683 44.6633 30.485 46.18C32.0017 47.6533 32.76 49.4517 32.76 51.575C32.76 53.6983 32.0017 55.5183 30.485 57.035C28.9683 58.5083 27.17 59.245 25.09 59.245C23.27 59.245 21.645 58.6817 20.215 57.555C18.8283 56.385 17.94 54.9333 17.55 53.2ZM28.34 51.575C28.34 50.7083 28.015 49.95 27.365 49.3C26.715 48.65 25.9567 48.325 25.09 48.325C24.18 48.325 23.4 48.65 22.75 49.3C22.1433 49.95 21.84 50.7083 21.84 51.575C21.84 52.4417 22.1433 53.2 22.75 53.85C23.4 54.5 24.18 54.825 25.09 54.825C25.9567 54.825 26.715 54.5 27.365 53.85C28.015 53.2 28.34 52.4417 28.34 51.575ZM50.8351 74H44.0751V34.415H39.8501V29.345H61.5601C64.8967 29.345 67.7351 30.06 70.0751 31.49C72.8917 33.2233 74.3001 35.65 74.3001 38.77C74.3001 43.9267 74.3001 46.2017 74.3001 45.595C74.3434 48.2817 73.2384 50.5783 70.9851 52.485C73.1084 53.9583 74.2134 55.9083 74.3001 58.335V58.855C74.6034 58.8117 74.9067 58.79 75.2101 58.79C77.3334 58.79 79.1317 59.5483 80.6051 61.065C82.1217 62.5817 82.8801 64.38 82.8801 66.46C82.8801 68.5833 82.1217 70.4033 80.6051 71.92C79.1317 73.3933 77.3334 74.13 75.2101 74.13C73.1301 74.13 71.3317 73.415 69.8151 71.985C68.2984 70.5117 67.5401 68.7567 67.5401 66.72C67.5401 64.9 67.5401 62.17 67.5401 58.53C67.5401 56.4933 65.8501 55.41 62.4701 55.28C60.3467 55.3667 59.0467 55.3667 58.5701 55.28V50.275C58.6567 50.275 59.3284 50.2533 60.5851 50.21C64.1817 50.1667 66.3267 49.4083 67.0201 47.935C67.3667 47.1117 67.5401 44.0783 67.5401 38.835C67.5401 35.8883 65.5467 34.415 61.5601 34.415H50.8351V74ZM78.4601 66.46C78.4601 65.5933 78.1351 64.835 77.4851 64.185C76.8784 63.535 76.1201 63.21 75.2101 63.21C74.3434 63.21 73.5851 63.535 72.9351 64.185C72.2851 64.835 71.9601 65.5933 71.9601 66.46C71.9601 67.37 72.2851 68.15 72.9351 68.8C73.5851 69.4067 74.3434 69.71 75.2101 69.71C76.1201 69.71 76.8784 69.4067 77.4851 68.8C78.1351 68.15 78.4601 67.37 78.4601 66.46Z" fill="#D4AF37"/>
</svg>
